<svg width="17" height="18" viewBox="0 0 17 18" fill="none" xmlns="http://www.w3.org/2000/svg">
<path d="M12.7254 0.620925C11.9171 0.729733 11.2746 1.05098 10.6425 1.6831C10.2902 2.03025 10.1814 2.18051 9.98446 2.58984C9.51814 3.55875 9.47151 4.4603 9.83939 5.50694C10.114 6.2945 10.7254 6.98362 11.4871 7.36704C12.1451 7.69346 12.5959 7.78673 13.3886 7.75046C13.9067 7.72973 14.0881 7.69865 14.4404 7.57429C15.0415 7.35668 15.399 7.12352 15.8238 6.67274C17.0466 5.3774 17.1192 3.2945 15.9896 1.91626C15.2073 0.962894 13.943 0.460303 12.7254 0.620925ZM13.8808 1.52248C15.4249 1.89036 16.3368 3.54321 15.829 5.05616C15.2798 6.68828 13.5026 7.42922 11.9586 6.67792C10.285 5.86445 9.90156 3.56393 11.2176 2.24787C11.8912 1.56911 12.9067 1.2945 13.8808 1.52248Z" fill="#FAFAFA"/>
<path d="M0.233161 3.84145C0.0362694 3.94508 0 4.04871 0 4.47876C0 6.15751 0.518135 8.29223 1.32124 9.93472C2.02591 11.3751 2.75648 12.401 3.88083 13.5202C6.25907 15.8881 9.27979 17.2301 12.601 17.3855C13.285 17.4218 13.2953 17.4218 13.4404 17.2922C13.6425 17.1161 13.6477 16.8674 13.4508 16.6964C13.3368 16.5979 13.2487 16.5772 12.9896 16.5772C10.4352 16.5772 7.50777 15.5047 5.41451 13.8052C2.67358 11.5772 1.00518 8.28705 0.84456 4.78964C0.813472 4.09016 0.80829 4.05907 0.668394 3.92435C0.518135 3.76891 0.398964 3.74819 0.233161 3.84145Z" fill="#FAFAFA"/>
</svg>
